<?xml version="1.0" standalone="no"?>
<!DOCTYPE svg PUBLIC "-//W3C//DTD SVG 20010904//EN"
 "http://www.w3.org/TR/2001/REC-SVG-20010904/DTD/svg10.dtd">
<svg version="1.0" xmlns="http://www.w3.org/2000/svg"
 width="322.000000pt" height="130.000000pt" viewBox="0 0 322.000000 130.000000"
 preserveAspectRatio="xMidYMid meet">

<g transform="translate(0.000000,130.000000) scale(0.100000,-0.100000)"
fill="#000000" stroke="none">
<path d="M423 1199 c-6 -6 -27 -11 -47 -12 -28 -1 -36 -5 -36 -20 0 -16 4 -18
28 -11 38 11 77 11 80 0 1 -6 -5 -11 -14 -12 -9 -1 -19 -6 -22 -10 -4 -4 1 -4
11 -1 9 4 17 2 17 -4 0 -18 20 -5 40 27 l19 30 -36 -4 c-30 -4 -35 -2 -30 12
7 19 5 20 -10 5z"/>
<path d="M378 1088 c-7 -13 -11 -30 -10 -38 2 -10 0 -11 -5 -3 -6 8 -16 8 -41
-2 -17 -8 -32 -17 -32 -20 0 -3 4 -3 10 0 6 4 7 -6 4 -25 -5 -24 -3 -30 11
-30 15 0 15 3 5 15 -9 11 -10 19 -2 27 15 15 35 -1 29 -23 -4 -15 -2 -17 13
-9 26 14 83 13 75 -1 -4 -6 -13 -8 -21 -5 -8 3 -21 3 -29 0 -12 -5 -12 -9 2
-30 18 -29 0 -34 -28 -8 -21 19 -54 11 -46 -10 4 -9 -5 -21 -19 -31 -14 -9
-23 -19 -20 -22 3 -3 17 4 32 16 32 25 84 30 64 6 -7 -9 -10 -18 -6 -22 3 -3
6 -1 6 6 0 8 6 11 16 7 8 -3 12 -2 9 4 -3 6 -2 10 4 10 5 0 12 -6 15 -12 3 -7
3 -3 0 10 -6 23 2 27 25 13 11 -7 10 -14 -8 -40 -12 -17 -25 -31 -28 -31 -3 0
1 8 8 17 12 14 12 16 -1 11 -8 -3 -40 -13 -70 -23 -72 -23 -78 -30 -52 -58 12
-13 22 -27 22 -33 0 -5 -12 6 -26 24 -25 31 -57 42 -69 22 -3 -5 0 -10 7 -10
9 -1 7 -5 -4 -14 -29 -21 -21 -28 13 -11 31 16 31 16 23 -7 -6 -20 -5 -21 9
-10 9 8 21 10 29 6 7 -5 18 -9 23 -9 6 0 9 -7 7 -16 -1 -8 8 -26 19 -38 18
-19 19 -25 8 -32 -11 -7 -9 -9 6 -10 11 0 15 -3 9 -5 -6 -3 -22 0 -35 5 -13 5
-18 10 -11 10 29 2 -2 21 -33 21 -27 0 -33 -3 -29 -15 5 -11 2 -13 -10 -9 -9
3 -13 10 -10 15 3 5 -11 9 -30 9 l-36 0 0 -137 c0 -76 5 -156 11 -178 10 -36
14 -61 18 -120 1 -15 3 -17 10 -6 7 11 10 11 17 -1 13 -20 104 -93 140 -111
28 -15 33 -14 70 7 21 12 39 27 39 33 0 6 4 15 9 20 5 5 6 3 2 -5 -14 -23 9
-12 50 26 22 21 46 36 52 34 7 -2 11 12 11 40 0 24 5 59 10 78 6 19 11 91 11
160 l-1 125 -43 -47 c-147 -160 -155 -178 -97 -244 68 -77 82 -96 76 -102 -3
-4 -10 0 -14 7 -9 13 -49 63 -93 113 -20 24 -40 29 -68 18 -3 -1 -8 -2 -12 -1
-4 0 -33 -30 -64 -68 -48 -59 -59 -67 -70 -56 -16 16 -37 66 -30 73 3 2 8 -7
11 -21 13 -49 29 -51 66 -5 19 23 40 48 48 55 16 16 23 91 9 99 -16 10 -158
176 -158 186 0 5 39 -35 87 -89 93 -105 103 -114 115 -107 4 3 8 0 8 -7 0 -8
3 -9 13 0 8 6 16 9 19 6 3 -3 18 10 34 28 133 150 164 186 164 191 0 3 -12 6
-27 6 -23 0 -28 4 -28 25 0 14 2 25 5 25 3 -1 36 -29 73 -63 54 -50 68 -68 70
-94 3 -51 16 -39 19 20 4 69 -12 100 -68 133 l-46 27 28 16 29 15 -35 6 c-19
4 -46 13 -60 20 l-25 15 23 3 c12 2 20 7 17 12 -3 5 0 12 6 16 7 4 9 3 5 -4
-7 -12 29 -27 43 -17 15 8 1 37 -15 31 -8 -3 -11 0 -8 8 3 7 -2 19 -11 26 -12
10 -15 10 -15 -3 0 -24 -36 -40 -60 -27 -11 6 -25 8 -30 5 -6 -4 -7 3 -1 18 6
16 6 28 -2 36 -14 14 -37 14 -37 1 0 -14 -28 -12 -32 2 -3 7 6 21 19 31 28 22
32 67 6 62 -10 -2 -20 -4 -23 -4 -3 -1 2 -5 10 -11 22 -14 9 -19 -33 -11 -37
6 -37 6 -22 29 10 13 21 19 28 15 7 -4 6 1 -2 11 -11 13 -11 20 -3 28 18 18
15 28 -8 28 -10 0 -25 -10 -32 -22z m38 -271 c8 3 14 -6 16 -29 4 -44 32 -45
36 -1 2 17 9 34 16 36 10 4 12 -1 9 -14 -3 -10 2 -30 11 -44 9 -13 16 -30 16
-37 0 -8 -5 -6 -11 5 -16 27 -37 20 -65 -23 -15 -22 -34 -40 -43 -40 -21 0
-47 17 -39 26 4 3 -3 22 -16 41 -13 19 -22 43 -19 53 6 21 53 42 67 30 5 -5
14 -6 22 -3z m150 -28 c19 -22 19 -22 -3 -8 -13 8 -23 17 -23 21 0 12 6 9 26
-13z m-26 -99 c0 -5 -4 -10 -10 -10 -5 0 -10 5 -10 10 0 6 5 10 10 10 6 0 10
-4 10 -10z m-106 -100 c19 -1 20 -2 4 -14 -12 -8 -15 -20 -11 -37 6 -22 5 -23
-11 -10 -15 12 -21 13 -38 2 -19 -12 -20 -11 -14 13 4 18 1 28 -11 35 -16 9
-16 10 4 11 14 0 24 8 29 23 l7 22 10 -22 c6 -13 19 -23 31 -23z m-242 -120
c2 -69 1 -114 -3 -100 -4 14 -7 77 -7 140 0 145 6 124 10 -40z m78 -92 c-31
-25 -39 -13 -9 14 13 13 26 19 28 14 2 -5 -6 -18 -19 -28z m278 -13 c-8 -8
-48 25 -48 40 0 9 9 6 27 -11 14 -13 24 -26 21 -29z m-114 -95 c19 -1 20 -2 4
-14 -12 -8 -15 -20 -11 -37 6 -22 5 -23 -11 -10 -15 12 -21 13 -38 2 -19 -12
-20 -11 -14 13 4 18 1 28 -11 35 -16 9 -16 10 4 11 14 0 24 8 29 23 l7 22 10
-22 c6 -13 19 -23 31 -23z m-89 -113 c6 -6 -3 -1 -20 10 -16 12 -41 34 -55 49
-17 19 -10 15 20 -10 25 -21 50 -43 55 -49z"/>
<path d="M440 1090 c0 -5 5 -10 11 -10 5 0 7 5 4 10 -3 6 -8 10 -11 10 -2 0
-4 -4 -4 -10z"/>
<path d="M1600 1078 c-83 -24 -125 -81 -118 -160 8 -75 53 -111 181 -144 91
-22 127 -46 127 -83 0 -20 -9 -36 -26 -50 -49 -39 -174 -23 -230 30 l-21 20
-28 -36 c-26 -35 -26 -37 -9 -51 54 -42 100 -58 186 -62 74 -4 93 -1 132 18
61 29 86 71 86 145 0 83 -32 113 -171 155 -118 36 -145 55 -135 94 16 66 133
73 219 13 27 -19 29 -19 43 -1 37 47 36 52 -3 78 -63 42 -158 56 -233 34z"/>
<path d="M2135 1072 c-72 -25 -121 -66 -150 -127 -72 -147 -19 -317 119 -381
39 -18 68 -24 124 -24 78 0 122 14 185 57 l37 26 0 103 0 104 -125 0 -125 0 0
-40 0 -40 80 0 80 0 0 -45 c0 -42 -2 -46 -40 -65 -47 -24 -128 -27 -169 -6
-38 20 -89 80 -96 114 -4 15 -8 36 -10 47 -2 10 0 39 6 64 30 135 173 191 285
112 43 -30 44 -30 74 -13 16 9 30 21 30 26 0 20 -78 78 -124 91 -65 19 -119
18 -181 -3z"/>
<path d="M1018 833 c-54 -136 -100 -256 -104 -266 -6 -16 -1 -18 46 -15 52 3
52 3 69 48 l17 45 126 3 126 3 18 -51 18 -50 53 0 53 0 -17 43 c-10 23 -56
141 -104 262 l-86 220 -59 3 -59 3 -97 -248z m201 36 c22 -57 42 -112 46 -121
7 -16 -1 -18 -89 -18 -53 0 -96 4 -96 9 0 9 78 220 87 234 8 13 10 9 52 -104z"/>
<path d="M2550 815 l0 -265 168 0 c190 0 214 7 246 75 35 74 5 153 -72 192 -2
1 13 16 33 35 69 63 55 167 -29 208 -37 17 -62 20 -194 20 l-152 0 0 -265z
m301 167 c15 -13 22 -30 22 -52 0 -56 -28 -70 -139 -70 l-94 0 0 63 c0 35 3
67 7 70 3 4 46 7 94 7 69 0 91 -4 110 -18z m5 -225 c33 -29 37 -79 8 -107 -16
-16 -36 -19 -119 -21 l-100 -2 -3 63 c-2 35 -1 69 2 76 4 10 29 14 95 14 80 0
93 -3 117 -23z"/>
<path d="M3078 815 l3 -265 44 0 45 0 0 265 0 265 -47 0 -48 0 3 -265z"/>
<path d="M640 1056 c0 -7 8 -20 17 -27 11 -10 14 -10 9 -1 -9 15 -1 15 24 2
11 -6 26 -23 34 -38 12 -20 15 -23 16 -9 0 26 -57 80 -76 73 -8 -3 -12 -2 -9
4 3 6 1 10 -4 10 -6 0 -11 -6 -11 -14z"/>
<path d="M668 1013 c-10 -2 -18 -12 -17 -21 0 -11 2 -12 6 -4 2 6 16 12 29 12
14 0 22 4 19 10 -6 10 -9 11 -37 3z"/>
<path d="M74 975 c-20 -30 -11 -79 18 -99 15 -11 18 -20 13 -33 -5 -10 -7 -22
-6 -26 1 -5 -3 -6 -9 -2 -6 3 -8 11 -4 17 3 5 -7 3 -24 -6 -25 -13 -42 -34
-42 -52 0 -3 10 0 21 7 12 6 74 21 138 34 168 34 181 41 99 49 -77 9 -107 30
-89 65 10 17 8 19 -9 16 -33 -6 -42 -16 -36 -41 5 -17 3 -22 -7 -18 -23 8 -40
50 -35 83 5 37 -6 40 -28 6z m96 -49 c0 -3 -4 -8 -10 -11 -5 -3 -10 -1 -10 4
0 6 5 11 10 11 6 0 10 -2 10 -4z"/>
<path d="M71 648 c-1 -16 4 -28 9 -28 12 0 12 8 0 35 -8 18 -9 17 -9 -7z"/>
<path d="M42 528 c1 -96 3 -109 14 -93 8 10 14 33 14 49 l1 31 24 -28 c14 -16
23 -33 20 -38 -4 -5 -2 -9 3 -9 17 0 21 54 6 84 -13 27 -12 30 6 43 11 8 20
23 20 35 0 15 -3 18 -12 11 -16 -12 -60 -24 -54 -15 2 4 -7 15 -19 24 l-24 18
1 -112z"/>
<path d="M680 560 c-9 -6 -10 -10 -3 -10 6 0 15 5 18 10 8 12 4 12 -15 0z"/>
<path d="M706 522 c-2 -4 -1 -14 5 -22 7 -12 9 -10 9 8 0 23 -5 28 -14 14z"/>
<path d="M646 443 c-6 -14 -5 -15 5 -6 7 7 10 15 7 18 -3 3 -9 -2 -12 -12z"/>
<path d="M358 439 c-7 -19 7 -46 16 -31 3 5 16 7 29 5 16 -3 26 1 30 11 5 13
0 15 -28 12 -20 -3 -35 0 -38 7 -2 6 -6 5 -9 -4z"/>
<path d="M964 385 c-24 -55 -33 -96 -13 -62 6 11 22 17 44 17 22 0 38 -6 45
-17 9 -15 10 -14 4 7 -11 39 -43 110 -49 110 -3 0 -17 -25 -31 -55z m56 -22
c0 -7 -11 -13 -25 -13 -28 0 -30 6 -14 47 l11 28 13 -25 c8 -14 14 -31 15 -37z"/>
<path d="M2092 423 c-5 -10 -6 -38 -2 -63 l7 -45 3 40 c1 22 2 48 1 57 -1 9 6
18 16 21 16 4 16 5 1 6 -10 0 -21 -7 -26 -16z"/>
<path d="M2197 433 c-18 -18 -5 -45 29 -59 47 -20 44 -50 -6 -48 -33 2 -33 1
-12 -9 31 -14 57 2 57 34 0 18 -8 25 -33 33 -44 12 -40 42 6 40 17 -1 29 2 26
7 -6 10 -57 12 -67 2z"/>
<path d="M3164 418 c-5 -13 -7 -41 -3 -63 l6 -40 2 38 c0 20 6 37 12 37 8 0 8
4 0 14 -10 11 -8 17 6 25 15 9 15 10 2 11 -9 0 -20 -10 -25 -22z"/>
<path d="M1609 413 c-8 -33 6 -96 21 -100 11 -4 12 -2 2 4 -7 6 -12 28 -11 56
2 48 -5 72 -12 40z"/>
<path d="M1081 401 c-16 -10 -8 -41 11 -41 9 0 9 3 -2 10 -13 9 -12 12 4 25
21 16 10 21 -13 6z"/>
<path d="M1171 401 c-16 -10 -8 -41 11 -41 9 0 9 3 -2 10 -13 9 -12 12 4 25
21 16 10 21 -13 6z"/>
<path d="M1308 390 c26 -24 27 -30 8 -55 -26 -36 -71 8 -47 46 6 11 7 19 2 19
-26 0 -27 -66 -2 -80 29 -15 39 -13 56 14 19 28 9 59 -22 70 -14 6 -13 2 5
-14z"/>
<path d="M1543 398 c9 -7 18 -29 20 -48 4 -34 4 -34 5 6 2 30 -3 44 -14 48
-25 10 -29 7 -11 -6z"/>
<path d="M1867 400 c6 -8 13 -33 16 -55 l4 -40 1 41 c1 29 -3 46 -15 55 -16
12 -17 12 -6 -1z"/>
<path d="M1988 399 c-26 -14 -23 -65 3 -79 26 -14 45 -7 59 22 11 22 10 21 -9
-2 -16 -20 -23 -23 -38 -14 -23 14 -28 41 -13 59 16 19 25 19 44 -1 9 -8 16
-11 16 -5 0 6 -9 15 -19 21 -23 12 -22 12 -43 -1z"/>
<path d="M2488 399 c-25 -14 -24 -65 1 -79 11 -5 27 -7 35 -4 19 7 21 -7 4
-25 -11 -11 -10 -13 2 -9 11 3 16 21 18 61 3 50 1 57 -15 56 -10 0 -13 -3 -5
-6 17 -7 15 -60 -3 -67 -41 -15 -64 43 -27 70 20 16 14 18 -10 3z"/>
<path d="M2596 394 c-39 -39 4 -103 50 -75 17 11 17 11 -4 6 -48 -13 -71 41
-30 69 12 9 17 16 11 16 -6 0 -19 -7 -27 -16z"/>
<path d="M2708 399 c-18 -10 -25 -63 -10 -73 5 -3 7 7 4 23 -4 31 17 55 42 45
25 -10 21 -63 -6 -74 -14 -5 -17 -9 -7 -9 39 -2 55 69 20 89 -23 12 -22 12
-43 -1z"/>
<path d="M2853 392 c9 -10 18 -32 18 -48 1 -18 3 -22 6 -11 7 28 -5 64 -24 71
-16 6 -16 6 0 -12z"/>
<path d="M3060 390 c-25 -25 -25 -32 -1 -61 16 -21 22 -22 45 -11 26 11 32 34
20 66 -3 9 -10 16 -15 16 -5 0 -4 -8 2 -19 24 -38 -21 -82 -47 -46 -19 25 -18
31 8 55 12 11 19 20 15 20 -4 0 -16 -9 -27 -20z"/>
<path d="M1365 380 c-3 -11 -4 -29 0 -39 7 -23 43 -37 56 -24 6 6 1 9 -12 9
-30 -1 -47 28 -31 54 7 11 8 20 3 20 -5 0 -13 -9 -16 -20z"/>
<path d="M1463 355 c0 -27 2 -38 4 -22 2 15 2 37 0 50 -2 12 -4 0 -4 -28z"/>
<path d="M1663 360 c0 -25 2 -35 4 -22 2 12 2 32 0 45 -2 12 -4 2 -4 -23z"/>
<path d="M1710 385 c-16 -20 -5 -62 19 -70 45 -14 80 41 46 73 -16 16 -16 16
-4 -6 16 -26 2 -57 -26 -57 -27 0 -43 31 -27 55 14 23 10 27 -8 5z"/>
<path d="M1820 360 c0 -22 2 -40 4 -40 2 0 6 18 8 40 2 22 0 40 -4 40 -5 0 -8
-18 -8 -40z"/>
<path d="M2302 370 c-2 -35 12 -60 32 -60 5 0 2 6 -7 13 -9 6 -18 28 -20 47
l-4 35 -1 -35z"/>
<path d="M2413 360 c0 -25 2 -35 4 -22 2 12 2 32 0 45 -2 12 -4 2 -4 -23z"/>
<path d="M2647 379 c4 -13 8 -18 11 -10 2 7 -1 18 -6 23 -8 8 -9 4 -5 -13z"/>
<path d="M2801 358 c2 -35 3 -37 6 -13 3 17 9 36 15 43 8 9 6 12 -6 12 -12 0
-16 -9 -15 -42z"/>
<path d="M2907 393 c-14 -13 -6 -24 23 -35 38 -13 33 -34 -6 -31 -24 2 -26 0
-11 -8 22 -13 57 -2 57 16 0 8 -14 22 -30 30 -17 9 -28 20 -25 25 7 11 2 13
-8 3z"/>
<path d="M1507 363 c-13 -12 -7 -41 9 -47 24 -9 31 -7 12 5 -25 14 -22 37 5
42 20 4 20 4 1 6 -11 0 -24 -2 -27 -6z"/>
<path d="M1120 345 c10 -12 9 -16 -4 -21 -9 -3 -23 -3 -32 0 -8 3 -12 2 -9 -4
8 -13 38 -13 52 1 13 13 6 39 -9 39 -6 0 -5 -6 2 -15z"/>
<path d="M1210 345 c10 -12 9 -16 -4 -21 -9 -3 -23 -3 -32 0 -8 3 -12 2 -9 -4
8 -13 38 -13 52 1 13 13 6 39 -9 39 -6 0 -5 -6 2 -15z"/>
<path d="M2355 330 c-3 -5 -1 -10 4 -10 6 0 11 5 11 10 0 6 -2 10 -4 10 -3 0
-8 -4 -11 -10z"/>
<path d="M157 214 c-11 -11 -8 -26 3 -19 5 3 8 0 5 -7 -7 -19 61 -93 71 -77 5
8 3 10 -6 4 -10 -6 -12 -4 -7 8 4 10 2 16 -6 14 -7 -1 -11 4 -9 11 1 7 -5 15
-13 18 -8 3 -13 9 -10 14 6 10 -19 42 -28 34z"/>
<path d="M612 198 c4 -12 0 -20 -30 -53 -7 -8 -8 -16 -3 -20 9 -5 61 60 61 77
0 5 -7 8 -16 8 -9 0 -14 -6 -12 -12z"/>
<path d="M1072 194 c-55 -38 -7 -130 56 -108 26 9 45 54 23 54 -6 0 -8 -7 -4
-16 12 -31 -44 -46 -71 -18 -39 38 -6 100 48 90 22 -4 27 -3 16 4 -21 14 -42
12 -68 -6z"/>
<path d="M1570 145 l0 -65 29 0 c16 0 36 3 45 6 17 7 22 54 6 54 -6 0 -5 8 2
19 17 27 -5 51 -48 51 l-34 0 0 -65z m75 30 c0 -15 -8 -21 -32 -23 -30 -3 -33
-1 -33 23 0 24 3 26 33 23 24 -2 32 -8 32 -23z m0 -60 c0 -15 -8 -21 -32 -23
-30 -3 -33 -1 -33 23 0 24 3 26 33 23 24 -2 32 -8 32 -23z"/>
<path d="M2533 145 c0 -38 2 -53 4 -32 2 20 2 52 0 70 -2 17 -4 1 -4 -38z"/>
<path d="M2753 145 c0 -38 2 -53 4 -32 2 20 2 52 0 70 -2 17 -4 1 -4 -38z"/>
<path d="M3070 185 c0 -19 -4 -23 -17 -18 -16 5 -15 4 1 -9 13 -10 17 -23 14
-41 -3 -15 -1 -27 3 -27 5 0 9 27 9 60 0 33 -2 60 -5 60 -3 0 -5 -11 -5 -25z"/>
<path d="M1470 188 c0 -9 -6 -19 -12 -21 -10 -4 -10 -6 0 -6 7 -1 12 -16 12
-41 0 -31 4 -40 18 -40 12 0 14 3 4 8 -7 5 -12 27 -11 55 1 26 -1 50 -4 54 -4
3 -7 -1 -7 -9z"/>
<path d="M1799 185 c-7 -32 5 -98 19 -101 7 -1 8 0 2 3 -15 7 -13 73 3 73 8 0
9 3 1 8 -6 4 -13 14 -16 22 -3 11 -6 9 -9 -5z"/>
<path d="M1192 120 c1 -40 2 -41 5 -10 2 19 11 40 20 47 13 10 13 12 -6 10
-18 -1 -21 -7 -19 -47z"/>
<path d="M1262 158 c-28 -28 -7 -79 33 -77 17 1 16 2 -5 8 -28 8 -39 43 -20
67 15 17 9 19 -8 2z"/>
<path d="M1306 163 c6 -4 14 -15 17 -23 5 -11 6 -9 4 4 -1 11 -9 21 -17 23
-10 3 -11 2 -4 -4z"/>
<path d="M1407 163 c6 -4 13 -26 16 -48 4 -40 4 -40 3 4 -1 30 -6 46 -16 48
-10 3 -11 2 -3 -4z"/>
<path d="M1692 120 c1 -40 2 -41 5 -10 2 19 11 40 20 47 13 10 13 12 -6 10
-18 -1 -21 -7 -19 -47z"/>
<path d="M1763 130 c0 -25 2 -35 4 -22 2 12 2 32 0 45 -2 12 -4 2 -4 -23z"/>
<path d="M1906 155 c4 -8 8 -15 10 -15 2 0 4 7 4 15 0 8 -4 15 -10 15 -5 0 -7
-7 -4 -15z"/>
<path d="M1963 125 c0 -27 2 -38 4 -22 2 15 2 37 0 50 -2 12 -4 0 -4 -28z"/>
<path d="M2002 121 c1 -41 2 -42 5 -11 3 19 9 40 14 46 5 7 3 11 -6 11 -11 0
-15 -12 -13 -46z"/>
<path d="M2055 160 c3 -5 8 -10 11 -10 2 0 4 5 4 10 0 6 -5 10 -11 10 -5 0 -7
-4 -4 -10z"/>
<path d="M2208 157 c6 -7 9 -25 8 -40 -2 -15 1 -27 5 -27 10 0 12 41 3 64 -3
9 -11 16 -16 16 -7 0 -7 -4 0 -13z"/>
<path d="M2262 121 c1 -41 2 -42 5 -11 3 19 9 40 14 46 5 7 3 11 -6 11 -11 0
-15 -12 -13 -46z"/>
<path d="M2318 130 c2 -22 6 -40 8 -40 2 0 4 18 4 40 0 22 -3 40 -8 40 -4 0
-6 -18 -4 -40z"/>
<path d="M2372 158 c-30 -30 0 -85 41 -74 15 3 27 11 27 16 0 6 -8 5 -19 -2
-15 -9 -23 -9 -35 1 -21 18 -20 48 2 60 9 6 12 11 7 11 -6 0 -16 -5 -23 -12z"/>
<path d="M2571 128 c-1 -23 0 -40 2 -38 8 10 16 80 8 80 -4 0 -8 -19 -10 -42z"/>
<path d="M2640 150 c-6 -12 -8 -30 -5 -40 7 -23 52 -37 67 -22 8 8 5 9 -11 5
-11 -3 -28 0 -35 6 -17 14 -13 51 6 63 10 6 10 8 1 8 -7 0 -17 -9 -23 -20z"/>
<path d="M2701 153 c7 -12 15 -20 18 -17 3 2 -3 12 -13 22 -17 16 -18 16 -5
-5z"/>
<path d="M2838 163 c7 -5 10 -23 8 -41 -2 -18 1 -35 6 -38 5 -4 8 12 6 37 -2
27 -8 44 -18 46 -11 3 -12 2 -2 -4z"/>
<path d="M2892 120 c1 -40 2 -41 5 -10 2 19 11 40 20 47 13 10 13 12 -6 10
-18 -1 -21 -7 -19 -47z"/>
<path d="M2945 160 c3 -5 8 -10 11 -10 2 0 4 5 4 10 0 6 -5 10 -11 10 -5 0 -7
-4 -4 -10z"/>
<path d="M3001 152 c-14 -26 -3 -60 21 -68 11 -3 22 -3 25 0 4 3 -1 6 -10 6
-9 0 -21 9 -27 19 -13 25 -13 27 6 45 8 9 11 16 5 16 -6 0 -15 -8 -20 -18z"/>
<path d="M1364 125 c-9 -23 3 -45 23 -44 17 1 17 2 1 6 -10 2 -18 13 -18 23 0
10 8 21 18 23 16 4 16 5 -1 6 -10 0 -20 -6 -23 -14z"/>
<path d="M1860 125 c-15 -18 3 -45 29 -44 11 0 9 3 -6 9 -13 5 -23 14 -23 20
0 6 10 15 23 20 15 6 17 9 6 9 -9 1 -22 -6 -29 -14z"/>
<path d="M2160 125 c-15 -18 3 -45 29 -44 11 0 9 3 -6 9 -13 5 -23 14 -23 20
0 6 10 15 23 20 15 6 17 9 6 9 -9 1 -22 -6 -29 -14z"/>
<path d="M2794 125 c-9 -23 3 -45 23 -44 17 1 17 2 1 6 -10 2 -18 13 -18 23 0
10 8 21 18 23 16 4 16 5 -1 6 -10 0 -20 -6 -23 -14z"/>
<path d="M1912 110 c0 -14 2 -19 5 -12 2 6 2 18 0 25 -3 6 -5 1 -5 -13z"/>
<path d="M545 110 c-3 -5 1 -10 10 -10 9 0 13 5 10 10 -3 6 -8 10 -10 10 -2 0
-7 -4 -10 -10z"/>
<path d="M264 88 c3 -15 26 -23 26 -8 0 6 -4 9 -9 6 -5 -4 -12 -1 -14 4 -3 6
-4 5 -3 -2z"/>
<path d="M520 90 c0 -5 5 -10 11 -10 5 0 7 5 4 10 -3 6 -8 10 -11 10 -2 0 -4
-4 -4 -10z"/>
<path d="M330 60 c0 -5 10 -10 23 -10 18 0 19 2 7 10 -19 13 -30 13 -30 0z"/>
<path d="M420 54 c0 -8 6 -11 15 -8 8 4 15 9 15 13 0 4 -7 8 -15 8 -8 0 -15
-6 -15 -13z"/>
<path d="M385 50 c4 -6 11 -8 16 -5 14 9 11 15 -7 15 -8 0 -12 -5 -9 -10z"/>
</g>
</svg>
